<?xml version="1.0" encoding="UTF-8"?>
<svg version="1.1" xmlns="http://www.w3.org/2000/svg" width="1024" height="1024">
<path d="M0 0 C337.92 0 675.84 0 1024 0 C1024 337.92 1024 675.84 1024 1024 C686.08 1024 348.16 1024 0 1024 C0 686.08 0 348.16 0 0 Z " fill="#F6F7FC" transform="translate(0,0)"/>
<path d="M0 0 C5.02597514 0.00458236 10.05193718 -0.00248749 15.07790959 -0.00795984 C24.88907804 -0.01679442 34.70021567 -0.01495859 44.51138527 -0.00913456 C52.4935178 -0.00459476 60.47564178 -0.00401512 68.45777524 -0.00618219 C70.16996271 -0.00664189 70.16996271 -0.00664189 71.91673983 -0.00711088 C74.23647893 -0.00775041 76.55621803 -0.00839884 78.87595712 -0.00905606 C100.56351074 -0.0147419 122.25104738 -0.00822886 143.93859821 0.00254467 C162.49922433 0.01147979 181.05982542 0.00992505 199.62045109 0.00070715 C221.23856957 -0.01002438 242.85667321 -0.014194 264.47479397 -0.00806832 C266.78510006 -0.00743131 269.09540615 -0.00680256 271.40571225 -0.00618219 C272.54206622 -0.00587364 273.6784202 -0.00556509 274.84920915 -0.00524719 C282.81118911 -0.00352897 290.77315957 -0.00641638 298.73513806 -0.0111413 C308.45313603 -0.01678224 318.17110175 -0.01516668 327.88909609 -0.00457981 C332.83593702 0.00063382 337.7827244 0.00280829 342.72956479 -0.00387812 C393.08231633 -0.06625295 393.08231633 -0.06625295 414.36483586 4.57394934 C415.40043644 4.79123693 416.43603703 5.00852453 417.50301945 5.2323966 C425.99024652 7.06638314 434.19005786 9.32736686 442.36483586 12.26144934 C443.58815617 12.68941809 444.81147648 13.11738684 446.07186711 13.55832434 C481.37838136 26.71970557 509.01550117 54.02618152 525.17733586 87.69894934 C541.47499875 123.39859186 541.83959718 163.4805934 541.75700986 201.96862006 C541.75009803 206.75536444 541.76075934 211.5420789 541.76894963 216.32881689 C541.78216246 225.66025616 541.77946554 234.99162229 541.77071171 244.32306421 C541.76388585 251.91931761 541.76303938 259.51555079 541.76628315 267.11180639 C541.76674285 268.20047421 541.76720255 269.28914202 541.76767618 270.41079977 C541.76863553 272.62366355 541.76960818 274.83652732 541.77059396 277.04939109 C541.77911137 297.71091858 541.76937138 318.37240589 541.75319286 339.03392678 C541.73979303 356.69230726 541.74212215 374.35062852 541.75594914 392.00900793 C541.77206986 412.60581623 541.77828774 433.20258946 541.76911235 453.79940319 C541.76815688 456.00329955 541.76721377 458.20719591 541.76628315 460.41109228 C541.76582033 461.49493736 541.7653575 462.57878244 541.76488065 463.69547132 C541.76231015 471.26650935 541.76661942 478.83752479 541.77372181 486.40855932 C541.78220966 495.65814207 541.77970595 504.90764864 541.76387958 514.15722287 C541.75609343 518.85994007 541.75273599 523.56253112 541.76282704 528.26524687 C541.87513191 585.49547696 537.22390224 642.93634448 495.17733586 685.82394934 C457.45610048 723.41789146 403.83532602 730.45431949 352.93598759 730.39516211 C351.36987391 730.397037 349.80376069 730.39934036 348.23764819 730.40202743 C343.99066344 730.40806914 339.74369859 730.40802096 335.49671054 730.40683305 C330.8929247 730.40662706 326.28914492 730.41216687 321.68536198 730.41689062 C312.68235394 730.42515817 303.67935245 730.42794378 294.67634093 730.428503 C287.34016511 730.42898048 280.00399142 730.43104674 272.66781628 730.43420362 C251.78758066 730.44300334 230.90735015 730.44762463 210.02711266 730.44687315 C208.90404227 730.44683319 207.78097188 730.44679324 206.62386906 730.44675207 C205.49939736 730.44671119 204.37492566 730.44667031 203.21637905 730.44662819 C185.05164044 730.44622299 166.88692267 730.45576234 148.72219007 730.46989044 C129.99146523 730.48434148 111.26075049 730.49115571 92.53001994 730.49029666 C82.04654831 730.48996745 71.56309847 730.49259107 61.07963192 730.50347471 C52.1411199 730.51269593 43.20263953 730.51466216 34.26412474 730.50796529 C29.72432587 730.50475605 25.18458727 730.50443273 20.64479458 730.51331854 C1.8394768 730.54771228 -16.90969575 730.25749292 -35.69545162 729.35173559 C-36.54817006 729.31153664 -37.40088851 729.27133769 -38.27944691 729.22992059 C-73.80494299 727.51675161 -109.51831354 721.06543916 -138.63516414 699.26144934 C-139.4202032 698.69683996 -140.20524227 698.13223059 -141.01407039 697.55051184 C-153.09348181 688.43622777 -164.47931944 677.03760014 -172.63516414 664.26144934 C-173.13789852 663.50348059 -173.64063289 662.74551184 -174.15860164 661.96457434 C-190.55340326 636.11456966 -196.55072257 606.27054367 -199.63516414 576.26144934 C-199.71628816 575.5524056 -199.79741218 574.84336186 -199.8809945 574.11283195 C-200.75259737 565.7896615 -200.77809409 557.49558544 -200.76887691 549.13806677 C-200.77074799 547.51994457 -200.77304988 545.90182282 -200.77574223 544.28370178 C-200.78183072 539.86091557 -200.78173011 535.43814836 -200.78054786 531.01535892 C-200.78034308 526.23512722 -200.78587022 521.45490149 -200.79060543 516.6746726 C-200.79889832 507.31444838 -200.80165973 497.95423045 -200.8022178 488.59400286 C-200.80269398 480.9743757 -200.80475383 473.35475061 -200.80791843 465.73512411 C-200.81672433 444.08869319 -200.82133836 422.44226722 -200.82058796 400.7958345 C-200.820548 399.62980966 -200.82050804 398.46378482 -200.82046688 397.2624259 C-200.820426 396.09496058 -200.82038511 394.92749527 -200.820343 393.72465222 C-200.81993742 374.84651076 -200.82948486 355.96838934 -200.84360524 337.09025367 C-200.85801989 317.66372079 -200.86487252 298.23719764 -200.86401147 278.81065929 C-200.86368106 267.92169514 -200.86635861 257.03275193 -200.87718952 246.14379263 C-200.88636212 236.86294467 -200.88841527 227.58212714 -200.88168009 218.30127658 C-200.87844749 213.57871477 -200.87823757 208.8562111 -200.88703334 204.13365507 C-200.99010942 145.02337474 -197.2289369 88.47097858 -153.76016414 43.94894934 C-132.32991641 22.74672087 -104.20895951 10.996116 -75.19766414 4.57394934 C-74.32496883 4.37140539 -73.45227352 4.16886145 -72.55313289 3.96017981 C-48.85874081 -1.01348548 -24.07294274 -0.03256024 0 0 Z " fill="#EBEEF3" transform="translate(341.63516414165497,140.73855066299438)"/>
<path d="M0 0 C204.865 0 204.865 0 222.875 3.75 C223.69395752 3.91846436 224.51291504 4.08692871 225.35668945 4.26049805 C249.61737576 9.45211379 276.33563857 18.00263098 295 35 C295.94230469 35.84949219 296.88460938 36.69898438 297.85546875 37.57421875 C322.56765853 60.63490114 337.55107449 94.69111268 339.16113281 128.37060547 C339.20718819 132.20551903 339.24666393 136.03982179 339.25 139.875 C339.25067474 140.5700766 339.25134949 141.2651532 339.25204468 141.98129272 C339.23560538 152.63964048 338.62308794 162.62446594 336 173 C335.83902832 173.7027002 335.67805664 174.40540039 335.51220703 175.12939453 C328.60127726 205.28919658 310.89878666 230.93913668 284.89160156 247.81494141 C263.84548826 261 263.84548826 261 257 261 C265.50835207 275.46898618 274.09933181 289.87585613 282.92578125 304.15380859 C287.82390101 312.07870908 292.6735481 320.03137552 297.5 328 C303.68591042 338.21017665 309.91888975 348.39016139 316.18481445 358.55151367 C320.54381068 365.62361392 324.87512617 372.71188613 329.1875 379.8125 C333.5529764 386.99822733 337.944505 394.16667237 342.375 401.3125 C342.89046387 402.14475098 343.40592773 402.97700195 343.93701172 403.83447266 C346.3294429 407.69613289 348.72348797 411.55676179 351.12451172 415.41308594 C352.99145871 418.41190335 354.85392427 421.41346728 356.71392822 424.41659546 C357.44305079 425.59194557 358.17379116 426.76629371 358.90618896 427.93960571 C359.92722171 429.57568426 360.94226698 431.21549486 361.95703125 432.85546875 C362.83838745 434.27315552 362.83838745 434.27315552 363.73754883 435.71948242 C365 438 365 438 365 440 C325.73 440 286.46 440 246 440 C232.33700058 416.08975101 232.33700058 416.08975101 226.875 405.8125 C223.00360829 398.57838591 219.12406196 391.35195703 215.125 384.1875 C214.74110107 383.49970459 214.35720215 382.81190918 213.96166992 382.10327148 C213.56052979 381.38469971 213.15938965 380.66612793 212.74609375 379.92578125 C209.20716355 373.58625881 205.69663256 367.23104641 202.1875 360.875 C201.6710643 359.93988083 201.6710643 359.93988083 201.14419556 358.98587036 C195.95255291 349.58187384 190.82568752 340.14461318 185.72998047 330.68823242 C181.5404688 322.9390007 177.23077438 315.26196086 172.83911133 307.62548828 C167.64158993 298.5304707 162.89181621 289.2944508 158 280 C133.25 279.505 133.25 279.505 108 279 C108 332.13 108 385.26 108 440 C72.36 440 36.72 440 0 440 C0 294.8 0 149.6 0 0 Z " fill="#101721" transform="translate(266,306)"/>
<path d="M0 0 C1.87648618 -0.00644224 3.75297139 -0.01317161 5.62945557 -0.02017212 C9.54954351 -0.03209335 13.46954367 -0.03585828 17.38964844 -0.03466797 C22.37318982 -0.03446507 27.35615913 -0.06176042 32.33956528 -0.09621239 C36.21244816 -0.11862492 40.08519647 -0.12250115 43.95813751 -0.12144852 C45.79345927 -0.1237832 47.62878597 -0.13248389 49.46404266 -0.14811325 C67.10846025 -0.28431989 83.48163209 1.81421832 96.87109375 14.33984375 C106.27076618 24.08752583 113.38256296 36.24779983 120.40625 47.75 C122.90048644 51.81013444 125.63787545 55.67782175 128.4609375 59.515625 C129.640625 61.3359375 129.640625 61.3359375 129.640625 63.3359375 C130.630625 63.3978125 131.620625 63.4596875 132.640625 63.5234375 C139.673622 64.56062696 144.75550899 69.01103476 149.31640625 74.19921875 C153.35924668 80.72262204 154.08029168 86.70482274 154.02880859 94.18920898 C154.03669403 95.61768158 154.03669403 95.61768158 154.04473877 97.07501221 C154.05787169 100.20252199 154.04922365 103.32951687 154.0390625 106.45703125 C154.04108532 108.64364214 154.0439985 110.83025237 154.04776001 113.01686096 C154.05217443 117.59211674 154.04578122 122.16719639 154.03173828 126.74243164 C154.01465726 132.59085096 154.02448657 138.43885688 154.04245567 144.28726101 C154.05332591 148.80071596 154.04983211 153.31407385 154.0420723 157.82753181 C154.04007872 159.98318595 154.04249978 162.13884906 154.04951096 164.29449272 C154.05717764 167.3143211 154.04544773 170.33349175 154.02880859 173.35327148 C154.03488129 174.23406876 154.04095398 175.11486603 154.04721069 176.02235413 C153.95044405 185.5602044 151.40557617 192.44999455 144.83203125 199.38671875 C138.04336864 205.42511918 130.65593217 206.71705438 121.8046875 206.609375 C113.21987529 205.86747765 106.29017308 201.74043632 100.640625 195.3359375 C95.24391662 187.57731094 93.640625 180.85036149 93.640625 171.3359375 C55.360625 171.3359375 17.080625 171.3359375 -22.359375 171.3359375 C-24.009375 165.7259375 -25.659375 160.1159375 -27.359375 154.3359375 C-28.64086508 151.04981322 -29.88514463 147.97875445 -31.421875 144.8359375 C-31.79763672 144.05677979 -32.17339844 143.27762207 -32.56054688 142.47485352 C-38.89938992 129.80612782 -47.52985238 118.49311088 -57.359375 108.3359375 C-57.89304687 107.72878906 -58.42671875 107.12164062 -58.9765625 106.49609375 C-68.61632576 95.92112957 -82.53177197 90.03536887 -95.359375 84.3359375 C-94.47923872 76.93065294 -92.6146784 71.73362597 -87.359375 66.3359375 C-84.3052574 64.0631058 -83.15889723 63.3359375 -79.359375 63.3359375 C-79.11960937 62.67851562 -78.87984375 62.02109375 -78.6328125 61.34375 C-69.60808845 40.027684 -55.56695609 14.00835048 -34.109375 3.640625 C-22.96155457 -0.23788753 -11.65172905 0.00946643 0 0 Z " fill="#2962FE" transform="translate(622.359375,237.6640625)"/>
<path d="M0 0 C10.786875 -0.04125 21.57375 -0.0825 32.6875 -0.125 C36.06701904 -0.14320801 39.44653809 -0.16141602 42.9284668 -0.18017578 C45.64371584 -0.18602369 48.35896665 -0.19111854 51.07421875 -0.1953125 C51.76087112 -0.20053925 52.4475235 -0.20576599 53.15498352 -0.21115112 C74.96266447 -0.36854557 96.37565786 3.2292386 112.7109375 18.62890625 C124.6801816 31.0270823 127.51909502 47.11928625 127.27734375 63.703125 C126.76110448 77.93180934 121.93624822 91.5666759 112 102 C96.51635403 114.65710121 76.40587831 121.15373416 56.42211914 121.11352539 C55.14389282 121.11340454 53.8656665 121.11328369 52.54870605 121.11315918 C51.21085561 121.10812567 49.87300566 121.10295922 48.53515625 121.09765625 C47.30373901 121.09664917 46.07232178 121.09564209 44.80358887 121.09460449 C40.22321638 121.08939007 35.64285721 121.07542884 31.0625 121.0625 C20.811875 121.041875 10.56125 121.02125 0 121 C0 81.07 0 41.14 0 0 Z " fill="#EBEEF3" transform="translate(374,385)"/>
<path d="M0 0 C1.2649102 -0.01029488 1.2649102 -0.01029488 2.55537415 -0.02079773 C5.326397 -0.03900824 8.0968504 -0.0352356 10.86791992 -0.02954102 C12.80694257 -0.03410641 14.7459636 -0.03941305 16.6849823 -0.04542542 C20.74415672 -0.05434589 24.8031343 -0.05194647 28.86230469 -0.04199219 C34.04377221 -0.0305191 39.22455653 -0.05069407 44.40593433 -0.07990932 C48.40988934 -0.09832945 52.41368251 -0.09796704 56.4176693 -0.0922718 C58.3268905 -0.09211922 60.23612312 -0.09811124 62.14530373 -0.11056328 C82.65104312 -0.22544797 82.65104312 -0.22544797 91.73339844 6.11181641 C97.1126633 11.78320339 101.18469846 18.04200064 105.22338867 24.71655273 C106.22982422 26.34173828 106.22982422 26.34173828 107.2565918 27.99975586 C112.12409859 35.91868247 112.12409859 35.91868247 113.28588867 39.40405273 C62.79588867 39.40405273 12.30588867 39.40405273 -39.71411133 39.40405273 C-34.69147795 26.84746929 -25.12874015 8.22505805 -12.62153625 1.82041931 C-8.39948159 0.07124494 -4.5230675 -0.02603783 0 0 Z " fill="#E9EDF3" transform="translate(609.714111328125,261.595947265625)"/>
<path d="M0 0 C24.82644033 -0.02338875 49.65287901 -0.04100851 74.47932816 -0.05181217 C86.00738138 -0.05696244 97.53542774 -0.06398092 109.06347656 -0.07543945 C119.11452131 -0.0854251 129.1655611 -0.09186266 139.21661067 -0.09408849 C144.53562075 -0.09538901 149.85461662 -0.09843307 155.17362213 -0.10573006 C160.18696357 -0.11255155 165.20028504 -0.11460455 170.21363068 -0.11310768 C172.04690662 -0.11338126 173.88018329 -0.11534984 175.7134552 -0.11920547 C185.19503591 -0.1381571 194.56030172 -0.03564863 204 1 C204 1.33 204 1.66 204 2 C137.34 2 70.68 2 2 2 C2 147.53 2 293.06 2 443 C37.64 443 73.28 443 110 443 C110 443.33 110 443.66 110 444 C95.80543958 444.02333029 81.61088213 444.0409134 67.4163065 444.05181217 C60.82595215 444.05704172 54.23561063 444.06414067 47.64526367 444.07543945 C41.29107982 444.08626578 34.93690835 444.09227629 28.58271599 444.09487724 C26.15250389 444.09673195 23.72229251 444.10035343 21.29208565 444.10573006 C17.90117019 444.11293711 14.51030659 444.11399108 11.11938477 444.11352539 C10.10374954 444.11712067 9.08811432 444.12071594 8.04170227 444.12442017 C7.12318481 444.1230455 6.20466736 444.12167084 5.25831604 444.12025452 C4.45543435 444.12117631 3.65255266 444.1220981 2.82534122 444.12304783 C1 444 1 444 0 443 C-0.09873027 440.64322146 -0.13179332 438.3157599 -0.12304783 435.95845699 C-0.12420167 435.20935361 -0.12535552 434.46025022 -0.12654433 433.68844673 C-0.12921807 431.14619364 -0.12468265 428.60400228 -0.12025452 426.06175232 C-0.12069006 424.23360255 -0.12156467 422.40545284 -0.12284368 420.57730347 C-0.12509188 415.52865773 -0.12106295 410.48003299 -0.11606562 405.43138993 C-0.11176594 399.99645557 -0.1132072 394.56152249 -0.1139679 389.12658691 C-0.11449344 379.70188044 -0.11134349 370.27718086 -0.10573006 360.85247612 C-0.09761914 347.22576491 -0.09500026 333.59905705 -0.09374207 319.97234369 C-0.0915509 297.86640762 -0.08489764 275.76047506 -0.07543945 253.65454102 C-0.06625975 232.1747235 -0.05917382 210.69490697 -0.05493164 189.21508789 C-0.05480011 188.55335265 -0.05466859 187.89161741 -0.05453308 187.20982958 C-0.05308377 179.90523638 -0.05169191 172.60064317 -0.05032361 165.29604995 C-0.03994899 110.19736409 -0.02232893 55.09868222 0 0 Z " fill="#D4D7DB" transform="translate(264,304)"/>
<path d="M0 0 C3.97190025 2.31560176 6.88901139 6.04364778 8.9296875 10.125 C9.41678708 15.90631302 9.7576401 21.27038618 7.3671875 26.625 C6.160625 27.8625 6.160625 27.8625 4.9296875 29.125 C4.47851562 29.60710937 4.02734375 30.08921875 3.5625 30.5859375 C-1.04970142 34.73921341 -5.8857482 34.86151308 -11.90625 34.60546875 C-17.36213041 33.77698321 -20.7646066 31.65405063 -24.44140625 27.62109375 C-27.37666935 23.40609657 -27.78633368 18.95574658 -27.578125 13.91015625 C-26.55685867 8.30890323 -23.67975045 4.07548897 -19.13671875 0.6796875 C-12.76037149 -2.87515717 -6.682577 -2.7042335 0 0 Z " fill="#EAEEF3" transform="translate(731.0703125,337.875)"/>
<path d="M0 0 C4.31394487 3.62763546 7.53109322 7.42860039 8.28515625 13.171875 C8.47827322 18.17612353 7.81809343 21.72067294 5 26 C4.01 26.66 3.02 27.32 2 28 C1.26136719 26.97261719 0.52273438 25.94523437 -0.23828125 24.88671875 C-6.00902227 16.96966032 -11.85353311 9.73582074 -19.015625 3.0390625 C-21 1 -21 1 -21 -1 C-13.27679501 -3.52186285 -7.43186148 -3.99118487 0 0 Z " fill="#EAEDF3" transform="translate(580,339)"/>
<path d="M0 0 C3.5625 0.1875 3.5625 0.1875 5.5625 2.1875 C-0.4921875 3.1640625 -0.4921875 3.1640625 -2.4375 3.1875 C-3.0975 2.5275 -3.7575 1.8675 -4.4375 1.1875 C-3.4375 0.1875 -3.4375 0.1875 0 0 Z " fill="#E4E8EC" transform="translate(443.4375,501.8125)"/>
<path d="M0 0 C0.33 0.66 0.66 1.32 1 2 C-0.25 4.625 -0.25 4.625 -2 7 C-2.99 7 -3.98 7 -5 7 C-3.35 4.69 -1.7 2.38 0 0 Z " fill="#1A53FE" transform="translate(567,260)"/>
</svg>
